<svg width="511" height="511" viewBox="0 0 511 511" fill="none" xmlns="http://www.w3.org/2000/svg">
<g clip-path="url(#clip0)">
<path d="M404.395 318.517C392.598 318.517 383.062 308.96 383.062 297.184C383.062 285.408 392.598 275.851 404.395 275.851H509.974C505.451 221.28 483.819 171.574 450.369 132.043L405.91 176.502C401.75 180.683 396.289 182.753 390.827 182.753C385.366 182.753 379.926 180.684 375.744 176.502C367.424 168.182 367.424 154.678 375.744 146.337L420.203 101.878C380.694 68.427 330.966 46.795 276.395 42.273V147.852C276.395 159.628 266.859 169.185 255.062 169.185C243.265 169.185 233.729 159.628 233.729 147.852V42.272C179.158 46.795 129.43 68.427 89.921 101.877L134.38 146.336C142.7 154.677 142.7 168.181 134.38 176.501C130.199 180.682 124.759 182.752 119.297 182.752C113.836 182.752 108.374 180.683 104.214 176.501L59.755 132.064C26.304 171.573 4.672 221.28 0.149 275.851H105.728C117.525 275.851 127.061 285.408 127.061 297.184C127.061 308.96 117.525 318.517 105.728 318.517H0C4.352 370.293 24.384 419.914 57.6 460.106C61.653 465.013 67.691 467.85 74.048 467.85H436.075C442.432 467.85 448.47 465.013 452.523 460.106C485.739 419.914 505.771 370.293 510.123 318.517H404.395V318.517ZM169.728 382.517C157.952 382.517 148.395 372.96 148.395 361.184C148.395 349.408 157.952 339.851 169.728 339.851C181.504 339.851 191.061 349.408 191.061 361.184C191.061 372.96 181.504 382.517 169.728 382.517ZM198.379 279.52L319.062 219.168L258.731 339.851L198.379 279.52ZM340.395 382.517C328.619 382.517 319.062 372.96 319.062 361.184C319.062 349.408 328.619 339.851 340.395 339.851C352.171 339.851 361.728 349.408 361.728 361.184C361.728 372.96 352.171 382.517 340.395 382.517Z" fill="#8594EE"/>
</g>
<defs>
<clipPath id="clip0">
<rect width="510.123" height="510.123" fill="white"/>
</clipPath>
</defs>
</svg>
